<svg width="67" height="67" viewBox="0 0 67 67" fill="none" xmlns="http://www.w3.org/2000/svg">
<path opacity="0.98" fill-rule="evenodd" clip-rule="evenodd" d="M3.07952 24.4153C3.78931 22.0353 4.77076 19.7725 5.98791 17.6628L8.87138 19.3275C8.88986 19.3382 8.90856 19.3481 8.92745 19.3573C7.85658 21.2137 6.99002 23.2028 6.35849 25.2939L6.35153 25.292L3.07952 24.4153ZM9.75138 17.8033L6.90973 16.1627C8.11434 14.3191 9.50552 12.6084 11.0565 11.0574L13.3445 13.3455C13.3823 13.3833 13.4227 13.417 13.4651 13.4465C12.1175 14.7928 10.9047 16.2741 9.84875 17.8684C9.81817 17.8449 9.7857 17.8232 9.75138 17.8033ZM14.589 12.101L12.3353 9.84724C14.1697 8.20475 16.1963 6.77251 18.3772 5.58842C18.3897 5.70728 18.4268 5.82549 18.4904 5.93567L20.0078 8.56398C18.1028 9.5969 16.3295 10.8417 14.7194 12.2669C14.6835 12.2078 14.6401 12.152 14.589 12.101ZM20.0146 5.05567C19.9672 4.97359 19.9086 4.90203 19.8418 4.84181C21.5538 4.02445 23.3505 3.35597 25.2151 2.85314L26.0224 5.86574C26.0471 5.9582 26.0858 6.04326 26.1354 6.11928C24.5595 6.54213 23.0379 7.09739 21.5831 7.7724L20.0146 5.05567ZM27.7224 5.41021L26.9272 2.4424C28.7781 2.05263 30.6885 1.82415 32.6428 1.77233V5.15197L32.643 5.16565C30.9706 5.21539 29.3345 5.40997 27.747 5.73729C27.7591 5.63071 27.7518 5.5201 27.7224 5.41021ZM1.78644 32.1937H5.18159C5.26252 30.4126 5.5078 28.6744 5.90262 26.9938L5.89601 26.992L2.62384 26.1152C2.1563 28.077 1.87088 30.1095 1.78644 32.1937ZM5.15192 33.5031H1.76C1.76015 35.8172 2.00793 38.0734 2.47829 40.2466L5.66703 39.3922C5.69813 39.3839 5.72929 39.3773 5.7604 39.3725C5.36168 37.4788 5.15197 35.5154 5.15192 33.5031ZM6.17497 41.0765C6.15777 41.0822 6.1403 41.0875 6.12255 41.0923L2.89855 41.9561C3.46322 44.0044 4.22803 45.9697 5.17062 47.8296L7.9367 46.2326C7.99694 46.1978 8.05959 46.171 8.12343 46.1517C7.31915 44.5413 6.66366 42.8435 6.17497 41.0765ZM8.94066 47.6704C8.90251 47.7022 8.86115 47.7312 8.8167 47.7568L6.00987 49.3773C7.1135 51.2842 8.40982 53.0655 9.87222 54.6948L12.186 52.3811C12.2156 52.3514 12.2469 52.3243 12.2794 52.2998C11.0184 50.8771 9.89815 49.3267 8.94066 47.6704ZM13.4793 53.5726C13.4639 53.5907 13.4476 53.6084 13.4305 53.6256L11.0839 55.9721C12.6184 57.5029 14.3088 58.8775 16.1291 60.07L17.8024 57.1719C17.8107 57.1574 17.8195 57.1432 17.8285 57.1293C16.2624 56.0883 14.8057 54.8958 13.4793 53.5726ZM19.3234 58.0574L17.6311 60.9885L17.6281 60.9937C19.5055 62.08 21.5046 62.9794 23.5999 63.6667L24.4669 60.4311C24.4709 60.416 24.4753 60.4011 24.4801 60.3864C22.6731 59.7803 20.9473 58.9971 19.3234 58.0574ZM32.6428 65.2298C30.1056 65.1625 27.6426 64.7975 25.2875 64.1684L25.2892 64.1621L26.165 60.8935C28.2402 61.4479 30.4091 61.7728 32.643 61.8392L32.6428 61.8534V65.2298ZM63.9326 42.5468C63.3844 44.3937 62.6727 46.1703 61.8142 47.8598C61.8075 47.8557 61.8006 47.8516 61.7937 47.8476L58.8743 46.1621C59.5906 44.7293 60.1891 43.2274 60.657 41.6691L60.6663 41.6716L63.9326 42.5468ZM60.9137 49.3718C60.9338 49.3834 60.9542 49.3941 60.9748 49.404C59.8801 51.2912 58.5965 53.0553 57.1499 54.6703C57.1288 54.6437 57.106 54.618 57.0814 54.5934L54.7537 52.2656C55.992 50.8641 57.0938 49.3392 58.0383 47.7117L60.9137 49.3718ZM55.8369 55.8379C55.8733 55.8743 55.9121 55.9068 55.9528 55.9355C54.5928 57.2967 53.1098 58.5349 51.5219 59.6321L50.0588 57.098C49.9738 56.9507 49.8525 56.8372 49.7128 56.7625C51.0847 55.8045 52.3679 54.7283 53.5476 53.5486L55.8369 55.8379ZM48.5346 57.978L50.0447 60.5935C47.9455 61.8781 45.6855 62.9256 43.3019 63.6988C43.3032 63.6187 43.2936 63.5371 43.2718 63.4559L42.4554 60.4089C44.5645 59.7074 46.5635 58.7648 48.4198 57.6139C48.4305 57.7384 48.468 57.8626 48.5346 57.978ZM41.5718 63.9114C41.5976 64.0077 41.6383 64.0958 41.6909 64.1742C39.3565 64.796 36.9162 65.1584 34.4028 65.2285V61.8534L34.4027 61.8379C36.5965 61.7694 38.7274 61.4517 40.7681 60.9121L41.5718 63.9114ZM64.386 40.8462C64.9445 38.4887 65.2402 36.0294 65.2402 33.5011C65.2402 33.4971 65.2402 33.4932 65.2402 33.4893C65.1273 33.5419 65.0014 33.5713 64.8686 33.5713H61.8509C61.8457 35.7716 61.5898 37.9131 61.1103 39.9686L61.1218 39.9716L64.386 40.8462ZM61.8014 31.8113C61.6696 29.5719 61.278 27.4024 60.6561 25.3325C60.7779 25.3536 60.9061 25.3492 61.0334 25.3151L63.9553 24.5322C64.6451 26.8785 65.0712 29.3377 65.1992 31.8755C65.0972 31.8341 64.9856 31.8113 64.8686 31.8113H61.8014ZM60.1683 23.8581C59.5963 22.2767 58.8876 20.7608 58.0565 19.3245L60.8551 17.7087C60.9021 17.6815 60.9457 17.6507 60.9856 17.6168C61.9455 19.2741 62.7598 21.0264 63.411 22.856L60.5779 23.6151C60.4156 23.6586 60.2762 23.7447 60.1683 23.8581ZM57.1276 17.8284C56.0874 16.2635 54.8957 14.8079 53.5737 13.4824L55.9267 11.1293C55.9417 11.1144 55.956 11.099 55.9696 11.0833C57.5026 12.6198 58.879 14.3126 60.0728 16.1358C60.0397 16.1498 60.0071 16.166 59.9751 16.1845L57.1276 17.8284ZM52.2923 12.2747L54.6822 9.88479L54.6939 9.8733C53.0638 8.41008 51.2813 7.11312 49.3733 6.00908L49.3708 6.01345L47.6775 8.94631C49.3282 9.90132 50.8737 11.018 52.2923 12.2747ZM46.1279 8.113C46.1352 8.09859 46.1429 8.08429 46.1511 8.07013L47.8255 5.17C45.8937 4.19125 43.8482 3.40428 41.7142 2.83413L41.7124 2.84092L40.8362 6.1109C42.681 6.60362 44.4516 7.27775 46.1279 8.113ZM34.4028 1.77357C36.3161 1.827 38.187 2.04975 40.0011 2.42735L39.1347 5.66084C39.1303 5.67729 39.1264 5.69375 39.123 5.71021C37.5907 5.40196 36.0136 5.21726 34.4027 5.16695L34.4028 5.15197V1.77357ZM33.5001 0.000976562C14.9985 0.000976562 0 14.9995 0 33.5011C0 52.0026 14.9985 67.0011 33.5001 67.0011C52.0017 67.0011 67.0002 52.0026 67.0002 33.5011C67.0002 14.9995 52.0017 0.000976562 33.5001 0.000976562ZM6.91192 33.5024C6.91192 18.8174 18.8165 6.9129 33.5015 6.9129C48.1865 6.9129 60.091 18.8174 60.091 33.5024C60.091 48.1874 48.1865 60.092 33.5015 60.092C18.8165 60.092 6.91192 48.1874 6.91192 33.5024ZM33.2099 16.1817C33.5912 16.1817 33.9291 16.4271 34.0469 16.7897L35.2774 20.5768H39.2593C39.6406 20.5768 39.9785 20.8223 40.0963 21.1849C40.2141 21.5474 40.085 21.9447 39.7766 22.1687L36.5551 24.5093L37.7856 28.2964C37.9034 28.6589 37.7744 29.0561 37.4659 29.2802C37.1575 29.5043 36.7399 29.5043 36.4314 29.2802L33.2099 26.9397L29.9885 29.2802C29.68 29.5043 29.2624 29.5043 28.954 29.2802C28.6455 29.0561 28.5165 28.6589 28.6343 28.2964L29.8648 24.5093L26.6433 22.1687C26.3349 21.9447 26.2058 21.5474 26.3236 21.1849C26.4414 20.8223 26.7793 20.5768 27.1606 20.5768H31.1425L32.373 16.7897C32.4908 16.4271 32.8287 16.1817 33.2099 16.1817ZM33.2099 19.9094L32.6188 21.7287C32.501 22.0913 32.1631 22.3368 31.7819 22.3368H29.8689L31.4165 23.4612C31.725 23.6853 31.854 24.0825 31.7362 24.4451L31.1451 26.2644L32.6927 25.14C33.0011 24.9159 33.4188 24.9159 33.7272 25.14L35.2748 26.2644L34.6837 24.4451C34.5659 24.0825 34.6949 23.6853 35.0034 23.4612L36.551 22.3368H34.638C34.2568 22.3368 33.9189 22.0913 33.8011 21.7287L33.2099 19.9094ZM47.8308 21.0276C47.713 20.6651 47.3751 20.4196 46.9939 20.4196C46.6127 20.4196 46.2748 20.6651 46.157 21.0276L44.9265 24.8147H40.9445C40.5633 24.8147 40.2254 25.0602 40.1076 25.4228C39.9898 25.7854 40.1188 26.1826 40.4273 26.4066L43.6487 28.7472L42.4182 32.5343C42.3004 32.8969 42.4295 33.2941 42.7379 33.5181C43.0463 33.7422 43.464 33.7422 43.7724 33.5181L46.9939 31.1776L50.2154 33.5181C50.5238 33.7422 50.9415 33.7422 51.2499 33.5181C51.5583 33.2941 51.6874 32.8969 51.5696 32.5343L50.3391 28.7472L53.5605 26.4066C53.869 26.1826 53.998 25.7854 53.8802 25.4228C53.7624 25.0602 53.4245 24.8147 53.0433 24.8147H49.0613L47.8308 21.0276ZM46.4028 25.9666L46.9939 24.1473L47.585 25.9666C47.7028 26.3292 48.0407 26.5747 48.422 26.5747H50.3349L48.7873 27.6991C48.4789 27.9232 48.3498 28.3204 48.4676 28.683L49.0588 30.5023L47.5112 29.3779C47.2027 29.1538 46.7851 29.1538 46.4766 29.3779L44.929 30.5023L45.5202 28.683C45.638 28.3204 45.5089 27.9232 45.2005 27.6991L43.6529 26.5747H45.5658C45.9471 26.5747 46.285 26.3292 46.4028 25.9666ZM19.4338 20.4196C19.8151 20.4196 20.1529 20.6651 20.2707 21.0276L21.5012 24.8147H25.4832C25.8644 24.8147 26.2023 25.0602 26.3201 25.4228C26.4379 25.7854 26.3089 26.1826 26.0005 26.4066L22.779 28.7472L24.0095 32.5343C24.1273 32.8969 23.9982 33.2941 23.6898 33.5181C23.3814 33.7422 22.9637 33.7422 22.6553 33.5181L19.4338 31.1776L16.2123 33.5181C15.9039 33.7422 15.4863 33.7422 15.1778 33.5181C14.8694 33.2941 14.7403 32.8969 14.8581 32.5343L16.0886 28.7472L12.8672 26.4066C12.5587 26.1826 12.4297 25.7854 12.5475 25.4228C12.6653 25.0602 13.0032 24.8147 13.3844 24.8147H17.3664L18.5969 21.0276C18.7147 20.6651 19.0526 20.4196 19.4338 20.4196ZM19.4338 24.1473L18.8427 25.9666C18.7249 26.3292 18.387 26.5747 18.0057 26.5747H16.0928L17.6404 27.6991C17.9488 27.9232 18.0779 28.3204 17.9601 28.683L17.3689 30.5023L18.9166 29.3779C19.225 29.1538 19.6426 29.1538 19.9511 29.3779L21.4987 30.5023L20.9075 28.683C20.7897 28.3204 20.9188 27.9232 21.2272 27.6991L22.7748 26.5747H20.8619C20.4806 26.5747 20.1428 26.3292 20.025 25.9666L19.4338 24.1473ZM14.9503 37.227C14.4642 37.227 14.0703 37.621 14.0703 38.107C14.0703 38.593 14.4642 38.987 14.9503 38.987H52.687C53.1731 38.987 53.567 38.593 53.567 38.107C53.567 37.621 53.1731 37.227 52.687 37.227H14.9503ZM24.0342 43.087C24.0342 42.601 24.4282 42.2071 24.9142 42.2071H42.0893C42.5753 42.2071 42.9693 42.601 42.9693 43.087C42.9693 43.5731 42.5753 43.967 42.0893 43.967H24.9142C24.4282 43.967 24.0342 43.5731 24.0342 43.087ZM28.9022 47.191C28.4161 47.191 28.0222 47.585 28.0222 48.071C28.0222 48.557 28.4161 48.951 28.9022 48.951H37.1088C37.5948 48.951 37.9888 48.557 37.9888 48.071C37.9888 47.585 37.5948 47.191 37.1088 47.191H28.9022Z" fill="#666666"/>
</svg>
