<svg width="25" height="21" viewBox="0 0 25 21" fill="none" xmlns="http://www.w3.org/2000/svg">
<path d="M21.4079 10.6662V9.24219C21.4079 6.85524 20.4597 4.56605 18.7719 2.87823C17.084 1.1904 14.7949 0.242187 12.4079 0.242188C10.021 0.242187 7.73178 1.1904 6.04395 2.87823C4.35612 4.56605 3.40791 6.85524 3.40791 9.24219V10.6662C2.35907 11.128 1.50071 11.9361 0.976531 12.9553C0.452352 13.9744 0.294171 15.1426 0.528467 16.2644C0.762764 17.3862 1.37532 18.3935 2.26358 19.1176C3.15184 19.8418 4.2619 20.2388 5.40791 20.2422C5.93834 20.2422 6.44705 20.0315 6.82212 19.6564C7.1972 19.2813 7.40791 18.7726 7.40791 18.2422V12.2422C7.40791 11.7118 7.1972 11.203 6.82212 10.828C6.44705 10.4529 5.93834 10.2422 5.40791 10.2422V9.24219C5.40791 7.38567 6.14541 5.60519 7.45816 4.29244C8.77092 2.97968 10.5514 2.24219 12.4079 2.24219C14.2644 2.24219 16.0449 2.97968 17.3577 4.29244C18.6704 5.60519 19.4079 7.38567 19.4079 9.24219V10.2422C18.8775 10.2422 18.3688 10.4529 17.9937 10.828C17.6186 11.203 17.4079 11.7118 17.4079 12.2422V18.2422H14.4079C14.1427 18.2422 13.8883 18.3475 13.7008 18.5351C13.5133 18.7226 13.4079 18.977 13.4079 19.2422C13.4079 19.5074 13.5133 19.7618 13.7008 19.9493C13.8883 20.1368 14.1427 20.2422 14.4079 20.2422H19.4079C20.5539 20.2388 21.664 19.8418 22.5522 19.1176C23.4405 18.3935 24.0531 17.3862 24.2874 16.2644C24.5216 15.1426 24.3635 13.9744 23.8393 12.9553C23.3151 11.9361 22.4568 11.128 21.4079 10.6662ZM5.40791 18.2422C4.61226 18.2422 3.8492 17.9261 3.28659 17.3635C2.72398 16.8009 2.40791 16.0378 2.40791 15.2422C2.40791 14.4465 2.72398 13.6835 3.28659 13.1209C3.8492 12.5583 4.61226 12.2422 5.40791 12.2422V18.2422ZM19.4079 18.2422V12.2422C20.2036 12.2422 20.9666 12.5583 21.5292 13.1209C22.0918 13.6835 22.4079 14.4465 22.4079 15.2422C22.4079 16.0378 22.0918 16.8009 21.5292 17.3635C20.9666 17.9261 20.2036 18.2422 19.4079 18.2422Z" fill="#BB8E34"/>
</svg>
