<svg width="71" height="53" viewBox="0 0 71 53" fill="none" xmlns="http://www.w3.org/2000/svg">
<path fill-rule="evenodd" clip-rule="evenodd" d="M30.9657 13.027V43.7038C30.9773 43.9112 30.9402 44.1185 30.8566 44.3131C30.7731 44.5077 30.6448 44.6856 30.4795 44.8359C30.3143 44.9863 30.1155 45.106 29.8953 45.1878C29.6751 45.2696 29.4381 45.3117 29.1985 45.3117C28.9589 45.3117 28.7218 45.2696 28.5016 45.1878C28.2814 45.106 28.0827 44.9863 27.9174 44.8359C27.7522 44.6856 27.6239 44.5077 27.5403 44.3131C27.4568 44.1185 27.4197 43.9112 27.4313 43.7038V20.7021C27.4062 19.6996 26.9292 18.7456 26.1024 18.0443C25.2756 17.3431 24.1648 16.9504 23.008 16.9504C21.8512 16.9504 20.7405 17.3431 19.9137 18.0443C19.0869 18.7456 18.6099 19.6996 18.5848 20.7021V43.7038C18.5964 43.9112 18.5593 44.1185 18.4757 44.3131C18.3921 44.5077 18.2638 44.6856 18.0986 44.8359C17.9334 44.9863 17.7346 45.106 17.5144 45.1878C17.2942 45.2696 17.0571 45.3117 16.8176 45.3117C16.578 45.3117 16.3409 45.2696 16.1207 45.1878C15.9005 45.106 15.7018 44.9863 15.5365 44.8359C15.3713 44.6856 15.243 44.5077 15.1594 44.3131C15.0758 44.1185 15.0387 43.9112 15.0503 43.7038V28.3699C15.0631 27.8595 14.9581 27.3519 14.7416 26.8771C14.525 26.4022 14.2013 25.9697 13.7893 25.6047C13.3773 25.2398 12.8853 24.9498 12.3423 24.7519C11.7993 24.5539 11.2162 24.452 10.6271 24.452C10.038 24.452 9.45487 24.5539 8.91187 24.7519C8.36886 24.9498 7.87693 25.2398 7.46493 25.6047C7.05293 25.9697 6.72916 26.4022 6.51261 26.8771C6.29606 27.3519 6.19108 27.8595 6.20385 28.3699V43.7038C6.20385 46.1442 7.3223 48.4846 9.31314 50.2102C11.304 51.9358 14.0042 52.9053 16.8196 52.9053H60.156C62.9715 52.9053 65.6717 51.9358 67.6625 50.2102C69.6533 48.4846 70.7718 46.1442 70.7718 43.7038V27.6022C70.7734 26.1139 70.358 24.6475 69.5612 23.3292C68.7645 22.0108 67.6103 20.8798 66.1978 20.0335L66.1396 19.9993L66.0523 19.9488L41.5565 5.54658C41.4131 5.45828 41.2676 5.36637 41.1199 5.28889L41.1012 5.27987C39.3937 4.3346 37.4099 3.83233 35.3838 3.83233C33.3577 3.83233 31.3738 4.3346 29.6663 5.27987C29.369 5.44408 29.0817 5.62152 28.8055 5.81149L27.425 6.66567V3.83641C27.4378 3.32594 27.3328 2.81839 27.1163 2.34355C26.8997 1.86871 26.576 1.43614 26.1639 1.0712C25.7519 0.706266 25.26 0.416319 24.717 0.21837C24.174 0.0204213 23.5909 -0.081543 23.0018 -0.081543C22.4127 -0.081543 21.8296 0.0204213 21.2866 0.21837C20.7436 0.416319 20.2516 0.706266 19.8396 1.0712C19.4276 1.43614 19.1038 1.86871 18.8873 2.34355C18.6707 2.81839 18.5658 3.32594 18.5785 3.83641V12.144L4.5988 20.794C3.18037 21.6391 2.02062 22.7708 1.21973 24.0914C0.41884 25.4119 0.000881504 26.8816 0.00195519 28.3735V44.2192C0.00195519 44.7833 0.59657 45.241 1.32841 45.241C2.06024 45.241 2.65694 44.7833 2.65694 44.2192V28.3699C2.65537 27.2722 2.95643 26.1901 3.53506 25.2136C4.1137 24.2372 4.95314 23.3947 5.98347 22.7564L21.2335 13.3226V3.83641C21.2219 3.629 21.259 3.42171 21.3426 3.22711C21.4262 3.0325 21.5545 2.85464 21.7197 2.70429C21.8849 2.55394 22.0837 2.43425 22.3039 2.35247C22.5241 2.27068 22.7612 2.22852 23.0007 2.22852C23.2403 2.22852 23.4774 2.27068 23.6976 2.35247C23.9178 2.43425 24.1165 2.55394 24.2818 2.70429C24.447 2.85464 24.5753 3.0325 24.6589 3.22711C24.7425 3.42171 24.7796 3.629 24.768 3.83641V11.1312L25.0382 10.9636L26.2379 10.223L31.0551 7.24414C32.3447 6.52022 33.8484 6.13505 35.3848 6.13505C36.9212 6.13505 38.4249 6.52022 39.7145 7.24414L64.8131 22.0014C65.8368 22.6401 66.6703 23.4809 67.2448 24.4542C67.8193 25.4275 68.1182 26.5054 68.1168 27.5986V43.7002C68.1168 44.6064 67.9109 45.5036 67.5108 46.3408C67.1108 47.178 66.5244 47.9386 65.7851 48.5794C65.0459 49.2201 64.1683 49.7284 63.2025 50.0751C62.2366 50.4219 61.2014 50.6004 60.156 50.6004H16.8113C15.7659 50.6004 14.7307 50.4219 13.7649 50.0751C12.799 49.7284 11.9214 49.2201 11.1822 48.5794C10.443 47.9386 9.85657 47.178 9.4565 46.3408C9.05644 45.5036 8.85052 44.6064 8.85052 43.7002V28.3699C8.87254 27.9765 9.06835 27.6056 9.39735 27.3339C9.72636 27.0622 10.1633 26.9107 10.6177 26.9107C11.0721 26.9107 11.5091 27.0622 11.8381 27.3339C12.1671 27.6056 12.3629 27.9765 12.385 28.3699V43.7038C12.3722 44.2143 12.4772 44.7218 12.6937 45.1967C12.9103 45.6715 13.234 46.1041 13.646 46.469C14.058 46.834 14.55 47.1239 15.093 47.3219C15.636 47.5198 16.2191 47.6218 16.8082 47.6218C17.3973 47.6218 17.9804 47.5198 18.5234 47.3219C19.0664 47.1239 19.5584 46.834 19.9704 46.469C20.3824 46.1041 20.7061 45.6715 20.9227 45.1967C21.1392 44.7218 21.2442 44.2143 21.2315 43.7038V20.7021C21.2198 20.4947 21.2569 20.2874 21.3405 20.0928C21.4241 19.8982 21.5524 19.7203 21.7176 19.57C21.8829 19.4196 22.0816 19.2999 22.3018 19.2181C22.522 19.1364 22.7591 19.0942 22.9987 19.0942C23.2382 19.0942 23.4753 19.1364 23.6955 19.2181C23.9157 19.2999 24.1145 19.4196 24.2797 19.57C24.445 19.7203 24.5732 19.8982 24.6568 20.0928C24.7404 20.2874 24.7775 20.4947 24.7659 20.7021V43.7038C24.7531 44.2143 24.8581 44.7218 25.0746 45.1967C25.2912 45.6715 25.615 46.1041 26.027 46.469C26.439 46.834 26.9309 47.1239 27.4739 47.3219C28.0169 47.5198 28.6001 47.6218 29.1891 47.6218C29.7782 47.6218 30.3614 47.5198 30.9044 47.3219C31.4474 47.1239 31.9393 46.834 32.3513 46.469C32.7633 46.1041 33.0871 45.6715 33.3036 45.1967C33.5202 44.7218 33.6251 44.2143 33.6124 43.7038V13.027C33.6008 12.8196 33.6379 12.6123 33.7214 12.4177C33.805 12.2231 33.9333 12.0452 34.0986 11.8949C34.2638 11.7446 34.4625 11.6249 34.6828 11.5431C34.903 11.4613 35.14 11.4191 35.3796 11.4191C35.6192 11.4191 35.8562 11.4613 36.0764 11.5431C36.2966 11.6249 36.4954 11.7446 36.6606 11.8949C36.8259 12.0452 36.9542 12.2231 37.0378 12.4177C37.1213 12.6123 37.1584 12.8196 37.1468 13.027V43.7038C37.134 44.2143 37.239 44.7218 37.4556 45.1967C37.6721 45.6715 37.9959 46.1041 38.4079 46.469C38.8199 46.834 39.3118 47.1239 39.8548 47.3219C40.3978 47.5198 40.981 47.6218 41.5701 47.6218C42.1591 47.6218 42.7423 47.5198 43.2853 47.3219C43.8283 47.1239 44.3202 46.834 44.7322 46.469C45.1442 46.1041 45.468 45.6715 45.6846 45.1967C45.9011 44.7218 46.0061 44.2143 45.9933 43.7038V20.7021C46.0153 20.3087 46.2111 19.9377 46.5401 19.666C46.8691 19.3944 47.3061 19.2428 47.7605 19.2428C48.2149 19.2428 48.6519 19.3944 48.9809 19.666C49.3099 19.9377 49.5057 20.3087 49.5277 20.7021V43.7038C49.5277 44.2072 49.6421 44.7056 49.8644 45.1707C50.0866 45.6357 50.4123 46.0583 50.823 46.4142C51.2336 46.7701 51.7211 47.0525 52.2576 47.2451C52.7942 47.4377 53.3692 47.5369 53.9499 47.5369C54.5307 47.5369 55.1057 47.4377 55.6423 47.2451C56.1788 47.0525 56.6663 46.7701 57.0769 46.4142C57.4876 46.0583 57.8133 45.6357 58.0355 45.1707C58.2578 44.7056 58.3722 44.2072 58.3722 43.7038V27.6022C58.3942 27.2088 58.59 26.8379 58.919 26.5662C59.248 26.2945 59.685 26.143 60.1394 26.143C60.5938 26.143 61.0308 26.2945 61.3598 26.5662C61.6888 26.8379 61.8846 27.2088 61.9066 27.6022V44.0877C61.9202 44.385 62.066 44.6662 62.3134 44.8723C62.5609 45.0785 62.8908 45.1937 63.2341 45.1937C63.5773 45.1937 63.9073 45.0785 64.1547 44.8723C64.4022 44.6662 64.548 44.385 64.5616 44.0877V27.6022C64.5365 26.5998 64.0595 25.6458 63.2327 24.9445C62.4059 24.2432 61.2951 23.8505 60.1383 23.8505C58.9815 23.8505 57.8708 24.2432 57.044 24.9445C56.2172 25.6458 55.7402 26.5998 55.7151 27.6022V43.7038C55.7267 43.9112 55.6896 44.1185 55.606 44.3131C55.5225 44.5077 55.3942 44.6856 55.2289 44.8359C55.0637 44.9863 54.8649 45.106 54.6447 45.1878C54.4245 45.2696 54.1874 45.3117 53.9479 45.3117C53.7083 45.3117 53.4712 45.2696 53.251 45.1878C53.0308 45.106 52.8321 44.9863 52.6668 44.8359C52.5016 44.6856 52.3733 44.5077 52.2897 44.3131C52.2061 44.1185 52.169 43.9112 52.1806 43.7038V20.7021C52.1556 19.6996 51.6785 18.7456 50.8518 18.0443C50.025 17.3431 48.9142 16.9504 47.7574 16.9504C46.6006 16.9504 45.4898 17.3431 44.6631 18.0443C43.8363 18.7456 43.3592 19.6996 43.3342 20.7021V43.7038C43.3458 43.9112 43.3087 44.1185 43.2251 44.3131C43.1415 44.5077 43.0132 44.6856 42.848 44.8359C42.6827 44.9863 42.484 45.106 42.2638 45.1878C42.0436 45.2696 41.8065 45.3117 41.5669 45.3117C41.3274 45.3117 41.0903 45.2696 40.8701 45.1878C40.6499 45.106 40.4511 44.9863 40.2859 44.8359C40.1207 44.6856 39.9924 44.5077 39.9088 44.3131C39.8252 44.1185 39.7881 43.9112 39.7997 43.7038V13.027C39.7997 12.0104 39.3338 11.0355 38.5045 10.3167C37.6752 9.59783 36.5504 9.19399 35.3775 9.19399C34.2047 9.19399 33.0799 9.59783 32.2505 10.3167C31.4212 11.0355 30.9553 12.0104 30.9553 13.027H30.9657Z" fill="#FAF39E"/>
</svg>
