<svg width="25" height="23" viewBox="0 0 25 23" fill="none" xmlns="http://www.w3.org/2000/svg">
<path d="M19.4082 0.242188H5.4082C4.08261 0.243775 2.81176 0.771069 1.87442 1.70841C0.937085 2.64575 0.409791 3.91659 0.408203 5.24219L0.408203 17.2422C0.409791 18.5678 0.937085 19.8386 1.87442 20.776C2.81176 21.7133 4.08261 22.2406 5.4082 22.2422H19.4082C20.7338 22.2406 22.0046 21.7133 22.942 20.776C23.8793 19.8386 24.4066 18.5678 24.4082 17.2422V5.24219C24.4066 3.91659 23.8793 2.64575 22.942 1.70841C22.0046 0.771069 20.7338 0.243775 19.4082 0.242188ZM5.4082 2.24219H19.4082C20.007 2.24337 20.5917 2.4237 21.0872 2.75999C21.5826 3.09628 21.9661 3.57313 22.1882 4.12919L14.5302 11.7882C13.9666 12.3495 13.2036 12.6647 12.4082 12.6647C11.6128 12.6647 10.8498 12.3495 10.2862 11.7882L2.6282 4.12919C2.85035 3.57313 3.23382 3.09628 3.72925 2.75999C4.22468 2.4237 4.80942 2.24337 5.4082 2.24219ZM19.4082 20.2422H5.4082C4.61255 20.2422 3.84949 19.9261 3.28688 19.3635C2.72427 18.8009 2.4082 18.0378 2.4082 17.2422V6.74219L8.8722 13.2022C9.81083 14.1384 11.0825 14.6642 12.4082 14.6642C13.7339 14.6642 15.0056 14.1384 15.9442 13.2022L22.4082 6.74219V17.2422C22.4082 18.0378 22.0921 18.8009 21.5295 19.3635C20.9669 19.9261 20.2039 20.2422 19.4082 20.2422Z" fill="#BB8E34"/>
</svg>
