<svg width="69" height="69" viewBox="0 0 69 69" fill="none" xmlns="http://www.w3.org/2000/svg">
<rect x="1.9834" y="53.3831" width="66.0147" height="14.6243" stroke="#666666" stroke-width="1.76275" stroke-linejoin="round"/>
<path d="M9.50781 57.9209C10.5783 57.921 11.5215 58.8472 11.5215 60.0859C11.5214 61.3246 10.5782 62.2509 9.50781 62.251C8.43733 62.251 7.49421 61.3246 7.49414 60.0859C7.49414 58.8472 8.43729 57.9209 9.50781 57.9209Z" stroke="#666666" stroke-width="1.76275"/>
<line x1="0.881373" y1="-0.881373" x2="20.1935" y2="-0.881373" transform="matrix(-0.65945 -0.751749 0.717315 -0.696749 67.999 68.0071)" stroke="#666666" stroke-width="1.76275" stroke-linecap="round" stroke-linejoin="round"/>
<path d="M16.1851 54.5266V53.6452H14.4223V54.5266H16.1851ZM14.4223 56.9634C14.4223 57.4501 14.8169 57.8447 15.3037 57.8447C15.7905 57.8447 16.1851 57.4501 16.1851 56.9634H14.4223ZM14.4223 54.5266V56.9634H16.1851V54.5266H14.4223Z" fill="#666666"/>
<path d="M23.689 53.9187V53.0373H21.9262V53.9187H23.689ZM21.9262 56.3555C21.9262 56.8422 22.3208 57.2368 22.8076 57.2368C23.2944 57.2368 23.689 56.8422 23.689 56.3555H21.9262ZM21.9262 53.9187V56.3555H23.689V53.9187H21.9262Z" fill="#666666"/>
<path d="M19.6577 53.9187V53.0373H17.895V53.9187H19.6577ZM17.895 58.7935C17.895 59.2802 18.2896 59.6748 18.7764 59.6748C19.2631 59.6748 19.6577 59.2802 19.6577 58.7935H17.895ZM17.895 53.9187V58.7935H19.6577V53.9187H17.895Z" fill="#666666"/>
<path d="M27.1851 53.9187V53.0373H25.4223V53.9187H27.1851ZM25.4223 58.7935C25.4223 59.2802 25.8169 59.6748 26.3037 59.6748C26.7905 59.6748 27.1851 59.2802 27.1851 58.7935H25.4223ZM25.4223 53.9187V58.7935H27.1851V53.9187H25.4223Z" fill="#666666"/>
<path d="M30.6616 54.5266V53.6452H28.8989V54.5266H30.6616ZM28.8989 56.9634C28.8989 57.4501 29.2935 57.8447 29.7803 57.8447C30.267 57.8447 30.6616 57.4501 30.6616 56.9634H28.8989ZM28.8989 54.5266V56.9634H30.6616V54.5266H28.8989Z" fill="#666666"/>
<path d="M37.0288 54.5266V53.6452H35.2661V54.5266H37.0288ZM35.2661 56.9634C35.2661 57.4501 35.6607 57.8447 36.1475 57.8447C36.6342 57.8447 37.0288 57.4501 37.0288 56.9634H35.2661ZM35.2661 54.5266V56.9634H37.0288V54.5266H35.2661Z" fill="#666666"/>
<path d="M34.1382 53.9187V53.0373H32.3755V53.9187H34.1382ZM32.3755 58.7935C32.3755 59.2802 32.7701 59.6748 33.2568 59.6748C33.7436 59.6748 34.1382 59.2802 34.1382 58.7935H32.3755ZM32.3755 53.9187V58.7935H34.1382V53.9187H32.3755Z" fill="#666666"/>
<path d="M40.5015 53.9187V53.0373H38.7387V53.9187H40.5015ZM38.7387 58.7935C38.7387 59.2802 39.1333 59.6748 39.6201 59.6748C40.1069 59.6748 40.5015 59.2802 40.5015 58.7935H38.7387ZM38.7387 53.9187V58.7935H40.5015V53.9187H38.7387Z" fill="#666666"/>
<path d="M43.396 54.5266V53.6452H41.6333V54.5266H43.396ZM41.6333 56.9634C41.6333 57.4501 42.0279 57.8447 42.5146 57.8447C43.0014 57.8447 43.396 57.4501 43.396 56.9634H41.6333ZM41.6333 54.5266V56.9634H43.396V54.5266H41.6333Z" fill="#666666"/>
<path d="M49.771 54.5266V53.6452H48.0083V54.5266H49.771ZM48.0083 56.9634C48.0083 57.4501 48.4029 57.8447 48.8896 57.8447C49.3764 57.8447 49.771 57.4501 49.771 56.9634H48.0083ZM48.0083 54.5266V56.9634H49.771V54.5266H48.0083Z" fill="#666666"/>
<path d="M46.8765 53.9187V53.0373H45.1137V53.9187H46.8765ZM45.1137 58.7935C45.1137 59.2802 45.5083 59.6748 45.9951 59.6748C46.4819 59.6748 46.8765 59.2802 46.8765 58.7935H45.1137ZM45.1137 53.9187V58.7935H46.8765V53.9187H45.1137Z" fill="#666666"/>
<rect x="54.1006" y="26.5752" width="13.8978" height="26.8113" stroke="#666666" stroke-width="1.76275" stroke-linejoin="round"/>
<line x1="59.6109" y1="26.5752" x2="59.6109" y2="53.3865" stroke="#666666" stroke-width="1.76275" stroke-linejoin="round"/>
<line x1="64.2476" y1="27.4566" x2="64.2476" y2="52.5051" stroke="#666666" stroke-width="1.76275" stroke-linecap="round" stroke-linejoin="round"/>
<path d="M49.8043 21.7884V48.2284L4.90541 48.4212V21.473M53.2196 21.7804L27.3456 1.0061L0.999023 21.2981L4.89604 21.2322M49.8093 21.7757H52.9453M6.0432 27.5591H48.8464M33.416 47.5672V31.8062H21.0946V47.5672M30.9567 40.2043C30.9567 40.7846 30.4051 41.2551 29.7246 41.2551C29.0441 41.2551 28.4925 40.7846 28.4925 40.2043C28.4925 39.624 29.0441 39.1536 29.7246 39.1536C30.4051 39.1536 30.9567 39.624 30.9567 40.2043Z" stroke="#666666" stroke-width="1.76" stroke-linecap="round" stroke-linejoin="round"/>
</svg>
