<svg width="70" height="69" viewBox="0 0 70 69" fill="none" xmlns="http://www.w3.org/2000/svg">
<ellipse cx="34.8302" cy="34.4986" rx="33.3302" ry="33.4986" stroke="#666666" stroke-width="1.76"/>
<circle cx="35.0003" cy="34.5008" r="29.3988" stroke="#666666" stroke-width="1.76"/>
<path d="M49.6814 16.1143L50.4348 16.0915C50.4236 15.688 50.0905 15.3675 49.6828 15.368L49.6814 16.1143ZM49.7619 19.0161L49.236 19.5525C49.4558 19.7637 49.7834 19.8215 50.0644 19.6987C50.3454 19.5759 50.5237 19.2969 50.5152 18.9933L49.7619 19.0161ZM46.7467 16.1183L46.7481 15.372C46.4412 15.3724 46.1646 15.557 46.0488 15.8388C45.933 16.1206 46.001 16.4433 46.2209 16.6546L46.7467 16.1183ZM47.6029 16.9411L48.1423 17.4606C48.282 17.3184 48.359 17.1272 48.3565 16.9292C48.3539 16.7311 48.272 16.5425 48.1287 16.4048L47.6029 16.9411ZM43.32 21.3012L42.7806 20.7817C42.6409 20.9239 42.5638 21.1151 42.5664 21.3131C42.569 21.5112 42.6509 21.6998 42.7942 21.8375L43.32 21.3012ZM44.6256 22.556L44.0998 23.0924C44.3978 23.3788 44.8745 23.3712 45.165 23.0755L44.6256 22.556ZM48.9084 18.1959L49.4343 17.6596C49.1363 17.3732 48.6595 17.3807 48.369 17.6765L48.9084 18.1959ZM48.928 16.1372L49.0085 19.039L50.5152 18.9933L50.4348 16.0915L48.928 16.1372ZM46.7453 16.8646L49.68 16.8606L49.6828 15.368L46.7481 15.372L46.7453 16.8646ZM48.1287 16.4048L47.2726 15.5819L46.2209 16.6546L47.077 17.4775L48.1287 16.4048ZM43.8595 21.8207L48.1423 17.4606L47.0634 16.4216L42.7806 20.7817L43.8595 21.8207ZM45.1514 22.0197L43.8458 20.7649L42.7942 21.8375L44.0998 23.0924L45.1514 22.0197ZM48.369 17.6765L44.0862 22.0365L45.165 23.0755L49.4479 18.7154L48.369 17.6765ZM50.2877 18.4798L49.4343 17.6596L48.3826 18.7323L49.236 19.5525L50.2877 18.4798Z" fill="#666666"/>
<path d="M27.2153 11.939L27.7357 11.3989C27.4452 11.119 26.9853 11.119 26.6948 11.3989L27.2153 11.939ZM29.3173 13.9647V14.7147C29.6231 14.7147 29.8984 14.529 30.0128 14.2453C30.1272 13.9616 30.058 13.6369 29.8377 13.4247L29.3173 13.9647ZM25.1133 13.9647L24.5928 13.4247C24.3726 13.6369 24.3033 13.9616 24.4178 14.2453C24.5322 14.529 24.8074 14.7147 25.1133 14.7147V13.9647ZM26.2996 13.9647H27.0496C27.0496 13.5505 26.7138 13.2147 26.2996 13.2147V13.9647ZM26.2996 20.0436H25.5496C25.5496 20.4578 25.8854 20.7936 26.2996 20.7936V20.0436ZM28.12 20.0436V20.7936C28.5342 20.7936 28.87 20.4578 28.87 20.0436H28.12ZM28.12 13.9647V13.2147C27.7057 13.2147 27.37 13.5505 27.37 13.9647H28.12ZM26.6948 12.479L28.7968 14.5047L29.8377 13.4247L27.7357 11.3989L26.6948 12.479ZM25.6337 14.5047L27.7357 12.479L26.6948 11.3989L24.5928 13.4247L25.6337 14.5047ZM26.2996 13.2147H25.1133V14.7147H26.2996V13.2147ZM27.0496 20.0436V13.9647H25.5496V20.0436H27.0496ZM28.12 19.2936H26.2996V20.7936H28.12V19.2936ZM27.37 13.9647V20.0436H28.87V13.9647H27.37ZM29.3173 13.2147H28.12V14.7147H29.3173V13.2147Z" fill="#666666"/>
<path d="M57.5635 38.0582L58.0978 38.5845C58.3854 38.2926 58.3854 37.8239 58.0978 37.5319L57.5635 38.0582ZM55.5155 40.1374L54.7655 40.1374C54.7655 40.4418 54.9495 40.716 55.2312 40.8314C55.5128 40.9469 55.8363 40.8806 56.0499 40.6637L55.5155 40.1374ZM55.5155 35.979L56.0499 35.4527C55.8363 35.2359 55.5128 35.1696 55.2312 35.285C54.9495 35.4004 54.7655 35.6746 54.7655 35.979L55.5155 35.979ZM55.5155 37.1512L55.5155 37.9012C55.9298 37.9012 56.2655 37.5654 56.2655 37.1512L55.5155 37.1512ZM49.3766 37.1512L49.3766 36.4012C48.9624 36.4012 48.6266 36.737 48.6266 37.1512L49.3766 37.1512ZM49.3766 38.9518L48.6266 38.9518C48.6266 39.3661 48.9624 39.7018 49.3766 39.7018L49.3766 38.9518ZM55.5155 38.9518L56.2655 38.9518C56.2655 38.5376 55.9298 38.2018 55.5155 38.2018L55.5155 38.9518ZM57.0291 37.5319L54.9812 39.6111L56.0499 40.6637L58.0978 38.5845L57.0291 37.5319ZM54.9812 36.5053L57.0291 38.5845L58.0978 37.5319L56.0499 35.4527L54.9812 36.5053ZM56.2655 37.1512L56.2655 35.979L54.7655 35.979L54.7655 37.1512L56.2655 37.1512ZM49.3766 37.9012L55.5155 37.9012L55.5155 36.4012L49.3766 36.4012L49.3766 37.9012ZM50.1266 38.9518L50.1266 37.1512L48.6266 37.1512L48.6266 38.9518L50.1266 38.9518ZM55.5155 38.2018L49.3766 38.2018L49.3766 39.7018L55.5155 39.7018L55.5155 38.2018ZM56.2655 40.1374L56.2655 38.9518L54.7655 38.9518L54.7655 40.1374L56.2655 40.1374Z" fill="#666666"/>
<path d="M34.9605 57.0627L34.4401 57.6028C34.7305 57.8827 35.1905 57.8827 35.4809 57.6028L34.9605 57.0627ZM32.8585 55.037L32.8585 54.287C32.5526 54.287 32.2774 54.4727 32.163 54.7564C32.0485 55.0401 32.1178 55.3648 32.3381 55.577L32.8585 55.037ZM37.0625 55.037L37.5829 55.577C37.8032 55.3648 37.8725 55.0401 37.758 54.7564C37.6436 54.4727 37.3684 54.287 37.0625 54.287L37.0625 55.037ZM35.8762 55.037L35.1262 55.037C35.1262 55.2359 35.2052 55.4267 35.3459 55.5673C35.4865 55.708 35.6773 55.787 35.8762 55.787L35.8762 55.037ZM35.8762 48.9581L36.6262 48.9581C36.6262 48.5439 36.2904 48.2081 35.8762 48.2081L35.8762 48.9581ZM34.0558 48.9581L34.0558 48.2081C33.6416 48.2081 33.3058 48.5439 33.3058 48.9581L34.0558 48.9581ZM34.0558 55.037L34.0558 55.787C34.47 55.787 34.8058 55.4512 34.8058 55.037L34.0558 55.037ZM35.4809 56.5227L33.3789 54.497L32.3381 55.577L34.4401 57.6028L35.4809 56.5227ZM36.5421 54.497L34.4401 56.5227L35.4809 57.6028L37.5829 55.577L36.5421 54.497ZM35.8762 55.787L37.0625 55.787L37.0625 54.287L35.8762 54.287L35.8762 55.787ZM35.1262 48.9581L35.1262 55.037L36.6262 55.037L36.6262 48.9581L35.1262 48.9581ZM34.0558 49.7081L35.8762 49.7081L35.8762 48.2081L34.0558 48.2081L34.0558 49.7081ZM34.8058 55.037L34.8058 48.9581L33.3058 48.9581L33.3058 55.037L34.8058 55.037ZM32.8585 55.787L34.0558 55.787L34.0558 54.287L32.8585 54.287L32.8585 55.787Z" fill="#666666"/>
<path d="M12.4395 38.0587L11.9051 37.5324C11.6176 37.8244 11.6176 38.2931 11.9051 38.585L12.4395 38.0587ZM14.4874 35.9795L15.2374 35.9795C15.2374 35.6751 15.0534 35.4009 14.7718 35.2855C14.4901 35.1701 14.1666 35.2364 13.953 35.4532L14.4874 35.9795ZM14.4874 40.1379L13.953 40.6642C14.1666 40.8811 14.4901 40.9473 14.7718 40.8319C15.0534 40.7165 15.2374 40.4423 15.2374 40.1379L14.4874 40.1379ZM14.4874 38.9658L14.4874 38.2158C14.0732 38.2158 13.7374 38.5515 13.7374 38.9658L14.4874 38.9658ZM20.6263 38.9658L20.6263 39.7158C21.0405 39.7158 21.3763 39.38 21.3763 38.9658L20.6263 38.9658ZM20.6263 37.1651L21.3763 37.1651C21.3763 36.7509 21.0405 36.4151 20.6263 36.4151L20.6263 37.1651ZM14.4874 37.1651L13.7374 37.1651C13.7374 37.364 13.8164 37.5548 13.9571 37.6954C14.0977 37.8361 14.2885 37.9151 14.4874 37.9151L14.4874 37.1651ZM12.9738 38.585L15.0217 36.5058L13.953 35.4532L11.9051 37.5324L12.9738 38.585ZM15.0217 39.6116L12.9738 37.5324L11.9051 38.585L13.953 40.6642L15.0217 39.6116ZM13.7374 38.9658L13.7374 40.1379L15.2374 40.1379L15.2374 38.9658L13.7374 38.9658ZM20.6263 38.2158L14.4874 38.2158L14.4874 39.7158L20.6263 39.7158L20.6263 38.2158ZM19.8763 37.1651L19.8763 38.9658L21.3763 38.9658L21.3763 37.1651L19.8763 37.1651ZM14.4874 37.9151L20.6263 37.9151L20.6263 36.4151L14.4874 36.4151L14.4874 37.9151ZM13.7374 35.9795L13.7374 37.1651L15.2374 37.1651L15.2374 35.9795L13.7374 35.9795Z" fill="#666666"/>
<path d="M48.0408 29.7575C48.0408 29.3433 47.705 29.0075 47.2908 29.0075C46.8766 29.0075 46.5408 29.3433 46.5408 29.7575H48.0408ZM47.2908 46.6932L47.2945 47.4432C47.7073 47.4411 48.0408 47.106 48.0408 46.6932H47.2908ZM22.0173 46.8167H21.2673C21.2673 47.0162 21.3468 47.2075 21.4882 47.3483C21.6297 47.4891 21.8214 47.5676 22.0209 47.5667L22.0173 46.8167ZM22.7673 29.5555C22.7673 29.1413 22.4315 28.8055 22.0173 28.8055C21.603 28.8055 21.2673 29.1413 21.2673 29.5555H22.7673ZM34.6488 16.4458L35.1547 15.8921C34.8726 15.6344 34.4419 15.6299 34.1545 15.8818L34.6488 16.4458ZM48.7074 30.3061C49.0132 30.5855 49.4876 30.5641 49.767 30.2583C50.0464 29.9525 50.025 29.4781 49.7192 29.1987L48.7074 30.3061ZM19.324 28.8794C19.0125 29.1524 18.9813 29.6263 19.2543 29.9378C19.5273 30.2493 20.0012 30.2805 20.3127 30.0075L19.324 28.8794ZM19.8041 28.6931C19.3899 28.701 19.0606 29.0431 19.0685 29.4573C19.0764 29.8714 19.4185 30.2007 19.8326 30.1929L19.8041 28.6931ZM22.0263 30.1511C22.4404 30.1432 22.7697 29.8011 22.7618 29.387C22.754 28.9728 22.4119 28.6435 21.9977 28.6514L22.0263 30.1511ZM47.2936 28.9994C46.8794 28.9994 46.5436 29.3351 46.5436 29.7494C46.5436 30.1636 46.8794 30.4994 47.2936 30.4994V28.9994ZM49.0589 30.4994C49.4731 30.4994 49.8089 30.1636 49.8089 29.7494C49.8089 29.3351 49.4731 28.9994 49.0589 28.9994V30.4994ZM22.6577 32.7038C22.2435 32.7038 21.9077 33.0396 21.9077 33.4538C21.9077 33.868 22.2435 34.2038 22.6577 34.2038V32.7038ZM46.7516 34.2038C47.1658 34.2038 47.5016 33.868 47.5016 33.4538C47.5016 33.0396 47.1658 32.7038 46.7516 32.7038V34.2038ZM31.1301 36.1742V35.4242C30.7159 35.4242 30.3801 35.76 30.3801 36.1742H31.1301ZM38.0658 36.1742H38.8158C38.8158 35.76 38.4801 35.4242 38.0658 35.4242V36.1742ZM37.3158 46.2697C37.3158 46.6839 37.6516 47.0197 38.0658 47.0197C38.4801 47.0197 38.8158 46.6839 38.8158 46.2697H37.3158ZM30.3801 46.2697C30.3801 46.6839 30.7159 47.0197 31.1301 47.0197C31.5443 47.0197 31.8801 46.6839 31.8801 46.2697H30.3801ZM35.9315 41.5535C35.9315 41.5249 35.9446 41.5023 35.9561 41.4912C35.9672 41.4804 35.9799 41.4765 35.988 41.4765V42.9765C36.7638 42.9765 37.4315 42.3605 37.4315 41.5535H35.9315ZM35.988 41.6305C35.9799 41.6305 35.9672 41.6266 35.9561 41.6158C35.9446 41.6047 35.9315 41.5821 35.9315 41.5535H37.4315C37.4315 40.7465 36.7638 40.1305 35.988 40.1305V41.6305ZM36.0444 41.5535C36.0444 41.5821 36.0313 41.6047 36.0198 41.6158C36.0087 41.6266 35.996 41.6305 35.988 41.6305V40.1305C35.2121 40.1305 34.5444 40.7465 34.5444 41.5535H36.0444ZM35.988 41.4765C35.996 41.4765 36.0087 41.4804 36.0198 41.4912C36.0313 41.5023 36.0444 41.5249 36.0444 41.5535H34.5444C34.5444 42.3605 35.2121 42.9765 35.988 42.9765V41.4765ZM46.5408 29.7575V46.6932H48.0408V29.7575H46.5408ZM47.2872 45.9432L22.0136 46.0667L22.0209 47.5667L47.2945 47.4432L47.2872 45.9432ZM22.7673 46.8167V29.5555H21.2673V46.8167H22.7673ZM34.143 16.9995L48.7074 30.3061L49.7192 29.1987L35.1547 15.8921L34.143 16.9995ZM20.3127 30.0075L35.1432 17.0098L34.1545 15.8818L19.324 28.8794L20.3127 30.0075ZM19.8326 30.1929L22.0263 30.1511L21.9977 28.6514L19.8041 28.6931L19.8326 30.1929ZM47.2936 30.4994H49.0589V28.9994H47.2936V30.4994ZM22.6577 34.2038H46.7516V32.7038H22.6577V34.2038ZM31.1301 36.9242H38.0658V35.4242H31.1301V36.9242ZM37.3158 36.1742V46.2697H38.8158V36.1742H37.3158ZM31.8801 46.2697V36.1742H30.3801V46.2697H31.8801Z" fill="#666666"/>
</svg>
