<svg width="70" height="69" viewBox="0 0 70 69" fill="none" xmlns="http://www.w3.org/2000/svg">
<path d="M47.9584 20.1751L34.763 15.4839L21.5675 20.1751C20.361 20.741 19.3098 21.5695 18.4983 22.5942C17.6868 23.6189 17.1375 24.8113 16.8945 26.0758C16.8945 28.6047 17.1627 32.2331 17.6223 36.6128C17.7179 38.9496 18.0645 41.2708 18.6566 43.5398C20.3802 48.0294 24.0955 50.6866 28.7493 54.0035C30.6651 55.3537 32.6742 56.5782 34.763 57.6685C36.849 56.5739 38.8579 55.3496 40.7766 54.0035C45.4304 50.6866 49.1457 48.0294 50.8694 43.5398C51.4614 41.2708 51.808 38.9496 51.9036 36.6128C52.3633 32.2331 52.5548 28.6047 52.6314 26.0758C52.3884 24.8113 51.8392 23.6189 51.0276 22.5942C50.2161 21.5695 49.165 20.741 47.9584 20.1751Z" stroke="#666666" stroke-width="1.76" stroke-miterlimit="10" stroke-linecap="round" stroke-linejoin="round"/>
<path d="M28.7656 34.3913L34.0323 39.4307L42.0951 31.7158" stroke="#666666" stroke-width="1.76" stroke-miterlimit="10" stroke-linecap="round" stroke-linejoin="round"/>
<path d="M40.4313 1.00098H41.3113C41.3113 0.514966 40.9173 0.120977 40.4313 0.120977V1.00098ZM29.5664 1.00098V0.120977C29.0804 0.120977 28.6864 0.514966 28.6864 1.00098L29.5664 1.00098ZM40.4313 6.94054H39.5513C39.5513 7.36333 39.8519 7.72636 40.2673 7.80513L40.4313 6.94054ZM50.741 11.0771L50.2623 11.8155C50.6107 12.0414 51.0697 11.993 51.3633 11.6994L50.741 11.0771ZM54.8459 6.97228L55.4681 6.35002C55.3031 6.18499 55.0793 6.09228 54.8459 6.09228C54.6125 6.09228 54.3887 6.18499 54.2236 6.35002L54.8459 6.97228ZM62.5285 14.6549L63.1507 15.2771C63.4944 14.9335 63.4944 14.3763 63.1507 14.0326L62.5285 14.6549ZM58.5956 18.5878L57.9733 17.9656C57.6692 18.2697 57.6294 18.7491 57.8794 19.0992L58.5956 18.5878ZM63.2778 29.0669L62.419 29.2585C62.5088 29.6608 62.8657 29.9469 63.2778 29.9469V29.0669ZM68.5 29.0669H69.38C69.38 28.5809 68.986 28.1869 68.5 28.1869V29.0669ZM68.5 39.9317V40.8117C68.986 40.8117 69.38 40.4177 69.38 39.9317H68.5ZM63.6218 39.9317V39.0517C63.1884 39.0517 62.8196 39.3672 62.7524 39.7953L63.6218 39.9317ZM59.3285 51.146L58.5902 50.6673C58.3643 51.0157 58.4127 51.4747 58.7063 51.7683L59.3285 51.146ZM62.5275 54.345L63.1498 54.9673C63.3148 54.8022 63.4075 54.5784 63.4075 54.345C63.4075 54.1116 63.3148 53.8878 63.1498 53.7227L62.5275 54.345ZM54.8449 62.0276L54.2226 62.6499C54.5663 62.9935 55.1235 62.9935 55.4672 62.6499L54.8449 62.0276ZM51.8179 59.0006L52.4401 58.3783C52.136 58.0742 51.6565 58.0345 51.3065 58.2844L51.8179 59.0006ZM40.4313 63.8701L40.2673 63.0055C39.8519 63.0843 39.5513 63.4473 39.5513 63.8701H40.4313ZM40.4313 68.001V68.881C40.9173 68.881 41.3113 68.487 41.3113 68.001H40.4313ZM29.5664 68.001H28.6864C28.6864 68.487 29.0804 68.881 29.5664 68.881V68.001ZM29.5664 63.8696H30.4464C30.4464 63.4468 30.1458 63.0838 29.7305 63.005L29.5664 63.8696ZM18.1828 59.0006L18.6942 58.2844C18.3441 58.0345 17.8647 58.0742 17.5606 58.3783L18.1828 59.0006ZM15.1523 62.031L14.5301 62.6533C14.6951 62.8183 14.919 62.911 15.1523 62.911C15.3857 62.911 15.6096 62.8183 15.7746 62.6533L15.1523 62.031ZM7.46972 54.3484L6.84747 53.7262C6.68244 53.8912 6.58972 54.115 6.58972 54.3484C6.58972 54.5818 6.68244 54.8056 6.84747 54.9707L7.46972 54.3484ZM10.6721 51.1461L11.2944 51.7683C11.588 51.4747 11.6364 51.0158 11.4105 50.6673L10.6721 51.1461ZM6.37885 39.9317L7.24821 39.7953C7.18105 39.3672 6.8122 39.0517 6.37885 39.0517V39.9317ZM1.5 39.9317H0.62C0.62 40.4177 1.01399 40.8117 1.5 40.8117L1.5 39.9317ZM1.5 29.0669V28.1869C1.01399 28.1869 0.62 28.5809 0.62 29.0669H1.5ZM6.72278 29.0669V29.9469C7.13494 29.9469 7.49188 29.6608 7.58166 29.2585L6.72278 29.0669ZM11.4051 18.5878L12.1213 19.0992C12.3712 18.7491 12.3315 18.2697 12.0273 17.9655L11.4051 18.5878ZM7.46875 14.6515L6.8465 14.0292C6.50283 14.3729 6.50283 14.9301 6.8465 15.2737L7.46875 14.6515ZM15.1514 6.96885L15.7736 6.34659C15.43 6.00293 14.8728 6.00293 14.5291 6.34659L15.1514 6.96885ZM19.2596 11.0771L18.6374 11.6994C18.931 11.993 19.3899 12.0414 19.7384 11.8155L19.2596 11.0771ZM29.5664 6.9411L29.7305 7.80568C30.1458 7.72687 30.4464 7.36385 30.4464 6.9411H29.5664ZM40.4313 0.120977H29.5664V1.88098H40.4313V0.120977ZM41.3113 6.94054V1.00098H39.5513V6.94054H41.3113ZM51.2198 10.3387C48.0436 8.27948 44.4507 6.8071 40.5952 6.07595L40.2673 7.80513C43.8936 8.49282 47.2734 9.87765 50.2623 11.8155L51.2198 10.3387ZM51.3633 11.6994L55.4681 7.59453L54.2236 6.35002L50.1188 10.4549L51.3633 11.6994ZM54.2236 7.59453L61.9062 15.2771L63.1507 14.0326L55.4681 6.35002L54.2236 7.59453ZM61.9062 14.0326L57.9733 17.9656L59.2178 19.2101L63.1507 15.2771L61.9062 14.0326ZM64.1367 28.8752C63.2545 24.9223 61.5888 21.2655 59.3117 18.0765L57.8794 19.0992C60.0226 22.1007 61.5893 25.5409 62.419 29.2585L64.1367 28.8752ZM68.5 28.1869H63.2778V29.9469H68.5V28.1869ZM69.38 39.9317V29.0669H67.62V39.9317H69.38ZM63.6218 40.8117H68.5V39.0517H63.6218V40.8117ZM60.0669 51.6248C62.2913 48.1939 63.8309 44.2769 64.4912 40.0681L62.7524 39.7953C62.1313 43.7542 60.6833 47.4388 58.5902 50.6673L60.0669 51.6248ZM63.1498 53.7227L59.9508 50.5238L58.7063 51.7683L61.9053 54.9673L63.1498 53.7227ZM55.4672 62.6499L63.1498 54.9673L61.9053 53.7227L54.2226 61.4054L55.4672 62.6499ZM51.1956 59.6228L54.2226 62.6499L55.4672 61.4054L52.4401 58.3783L51.1956 59.6228ZM40.5952 64.7347C44.9069 63.9171 48.89 62.1724 52.3292 59.7167L51.3065 58.2844C48.0696 60.5956 44.3225 62.2365 40.2673 63.0055L40.5952 64.7347ZM41.3113 68.001V63.8701H39.5513V68.001H41.3113ZM29.5664 68.881H40.4313V67.121H29.5664V68.881ZM28.6864 63.8696V68.001H30.4464V63.8696H28.6864ZM17.6714 59.7168C21.1098 62.1718 25.0919 63.9162 29.4024 64.7341L29.7305 63.005C25.6763 62.2357 21.9303 60.5951 18.6942 58.2844L17.6714 59.7168ZM17.5606 58.3783L14.5301 61.4088L15.7746 62.6533L18.8051 59.6228L17.5606 58.3783ZM15.7746 61.4088L8.09198 53.7262L6.84747 54.9707L14.5301 62.6533L15.7746 61.4088ZM8.09198 54.9707L11.2944 51.7683L10.0498 50.5238L6.84747 53.7262L8.09198 54.9707ZM5.50948 40.0681C6.16978 44.2769 7.70935 48.1939 9.93371 51.6248L11.4105 50.6673C9.31731 47.4388 7.86931 43.7543 7.24821 39.7953L5.50948 40.0681ZM1.5 40.8117H6.37885V39.0517H1.5V40.8117ZM0.62 29.0669V39.9317H2.38V29.0669H0.62ZM6.72278 28.1869H1.5V29.9469H6.72278V28.1869ZM10.6889 18.0764C8.41183 21.2655 6.74609 24.9223 5.86391 28.8752L7.58166 29.2585C8.41134 25.5409 9.97808 22.1007 12.1213 19.0992L10.6889 18.0764ZM6.8465 15.2737L10.7828 19.2101L12.0273 17.9655L8.091 14.0292L6.8465 15.2737ZM14.5291 6.34659L6.8465 14.0292L8.091 15.2737L15.7736 7.5911L14.5291 6.34659ZM19.8819 10.4548L15.7736 6.34659L14.5291 7.5911L18.6374 11.6994L19.8819 10.4548ZM29.4024 6.07653C25.548 6.80787 21.9562 8.28002 18.7809 10.3387L19.7384 11.8155C22.7265 9.87816 26.1052 8.49355 29.7305 7.80568L29.4024 6.07653ZM28.6864 1.00098V6.9411H30.4464V1.00098H28.6864Z" fill="#666666"/>
</svg>
